<?xml version="1.0" encoding="utf-8"?>
<!-- Generator: Adobe Illustrator 16.0.0, SVG Export Plug-In . SVG Version: 6.00 Build 0)  -->
<!DOCTYPE svg PUBLIC "-//W3C//DTD SVG 1.1//EN" "http://www.w3.org/Graphics/SVG/1.1/DTD/svg11.dtd">
<svg version="1.1" id="Layer_1" xmlns="http://www.w3.org/2000/svg" xmlns:xlink="http://www.w3.org/1999/xlink" x="0px" y="0px"
	 width="20px" height="20px" viewBox="0 0 20 20" enable-background="new 0 0 20 20" xml:space="preserve">
<g>
	<polygon fill="#FFFFFF" points="10,0.043 19.758,5.021 19.758,14.979 10,19.957 	"/>
	<path d="M18.757,5.634v8.731l-8.126,4.147l0.035-16.951 M10,0.043v19.914l9.758-4.979V5.021L10,0.043L10,0.043z"/>
</g>
<g>
	<polygon fill="#FFFFFF" points="0.243,5.021 10,0.043 10,19.957 0.243,14.979 	"/>
	<path d="M9.375,1.531l0.031,17l-8.163-4.166V5.634L9,1.677 M10,0.043L0.243,5.021v9.957L10,19.957V0.043L10,0.043z"/>
</g>
<g>
	<polygon fill="#FAFAFA" points="0.243,14.979 10,19.957 19.758,14.979 10,10 	"/>
	<path d="M10,11.123l7.556,3.855L10,18.834l-7.556-3.855L10,11.123 M10,10l-9.757,4.979L10,19.957l9.758-4.979L10,10L10,10z"/>
</g>
<circle cx="10" cy="10.349" r="3.136"/>
<circle fill="#FFFFFF" cx="10" cy="10.2" r="2.19"/>
</svg>
